HIERARCHY
ROOT SpineBase
{
  OFFSET 0.000000 0.000000 0.000000
  CHANNELS 6 Xposition Yposition Zposition Zrotation Xrotation Yrotation
  JOINT SpineMid
  {
    OFFSET 0.000000 30.010168 0.000000
    CHANNELS 3 Zrotation Xrotation Yrotation
    JOINT SpineShoulder
    {
      OFFSET 0.052210 22.398377 -0.653812
      CHANNELS 3 Zrotation Xrotation Yrotation
      JOINT Neck
      {
        OFFSET 0.011048 7.447852 -0.517841
        CHANNELS 3 Zrotation Xrotation Yrotation
        JOINT Head
        {
          OFFSET -3.262160 13.651631 0.290146
          CHANNELS 3 Zrotation Xrotation Yrotation
          End Site
          {
            OFFSET 0 0 0
          }
        }
      }
      JOINT ShoulderLeft
      {
        OFFSET -14.014373 -3.469184 6.082460
        CHANNELS 3 Zrotation Xrotation Yrotation
        JOINT ElbowLeft
        {
          OFFSET -1.731204 -24.855947 2.955762
          CHANNELS 3 Zrotation Xrotation Yrotation
          JOINT WristLeft
          {
            OFFSET -3.524680 -22.110091 -4.377510
            CHANNELS 3 Zrotation Xrotation Yrotation
            JOINT HandLeft
            {
              OFFSET 0.742152 -3.197777 -1.057190
              CHANNELS 3 Zrotation Xrotation Yrotation
              JOINT HandTipLeft
              {
                OFFSET 0.173082 -4.135879 -2.695865
                CHANNELS 3 Zrotation Xrotation Yrotation
                End Site
                {
                  OFFSET 0 0 0
                }
              }
              JOINT ThumbLeft
              {
                OFFSET 2.100735 0.937769 -6.189419
                CHANNELS 3 Zrotation Xrotation Yrotation
                End Site
                {
                  OFFSET 0 0 0
                }
              }
            }
          }
        }
      }
      JOINT ShoulderRight
      {
        OFFSET 13.198510 -2.028715 -8.936155
        CHANNELS 3 Zrotation Xrotation Yrotation
        JOINT ElbowRight
        {
          OFFSET 12.565911 -21.768721 -1.974462
          CHANNELS 3 Zrotation Xrotation Yrotation
          JOINT WristRight
          {
            OFFSET 6.602832 -19.661608 -5.148806
            CHANNELS 3 Zrotation Xrotation Yrotation
            JOINT HandRight
            {
              OFFSET 1.939433 -8.335999 -1.274428
              CHANNELS 3 Zrotation Xrotation Yrotation
              JOINT HandTipRight
              {
                OFFSET 3.484931 -7.364156 -0.288583
                CHANNELS 3 Zrotation Xrotation Yrotation
                End Site
                {
                  OFFSET 0 0 0
                }
              }
              JOINT ThumbRight
              {
                OFFSET -3.243243 -1.426842 -2.666745
                CHANNELS 3 Zrotation Xrotation Yrotation
                End Site
                {
                  OFFSET 0 0 0
                }
              }
            }
          }
        }
      }
    }
  }
  JOINT HipLeft
  {
    OFFSET -7.166958 1.488293 -0.603448
    CHANNELS 3 Zrotation Xrotation Yrotation
    JOINT KneeLeft
    {
      OFFSET -3.042082 -26.304048 -0.879241
      CHANNELS 3 Zrotation Xrotation Yrotation
      JOINT AnkleLeft
      {
        OFFSET -0.522775 -32.398320 4.038755
        CHANNELS 3 Zrotation Xrotation Yrotation
        JOINT FootLeft
        {
          OFFSET -4.559939 -2.980717 -12.257440
          CHANNELS 3 Zrotation Xrotation Yrotation
          End Site
          {
            OFFSET 0 0 0
          }
        }
      }
    }
  }
  JOINT HipRight
  {
    OFFSET 6.720425 0.844324 -5.962191
    CHANNELS 3 Zrotation Xrotation Yrotation
    JOINT KneeRight
    {
      OFFSET 6.883613 -23.145948 -0.559589
      CHANNELS 3 Zrotation Xrotation Yrotation
      JOINT AnkleRight
      {
        OFFSET 4.891151 -34.567221 4.385294
        CHANNELS 3 Zrotation Xrotation Yrotation
        JOINT FootRight
        {
          OFFSET -0.202601 -8.205230 -5.650565
          CHANNELS 3 Zrotation Xrotation Yrotation
          End Site
          {
            OFFSET 0 0 0
          }
        }
      }
    }
  }
}
MOTION
Frames: 11
Frame Time: 0.033333
2.170924 65.428033 374.771961 -2.825271 1.611652 -1.811638 1.399173 0.200310 1.826951 0.632886 -0.259585 -0.003439 -18.727833 -7.551196 -2.625948 0.000000 0.000000 0.000000 -18.054085 2.762341 -2.268111 29.638845 4.368427 -0.325464 -16.582797 -17.074457 1.245398 14.239747 -9.222739 -7.278913 0.000000 0.000000 0.000000 0.000000 0.000000 0.000000 39.863333 37.466919 5.179669 36.046821 40.881615 -24.557323 49.208088 -4.595255 41.578225 -27.184732 -13.781722 15.855921 0.000000 0.000000 0.000000 0.000000 0.000000 0.000000 3.114964 14.241042 0.012290 4.012374 -8.535281 3.161063 0.535788 -3.121392 -24.715096 0.000000 0.000000 0.000000 -2.239414 -5.839077 0.432318 2.974382 1.508404 0.380027 13.219701 39.538023 -9.880849 0.000000 0.000000 0.000000
2.060472 65.333168 375.176061 -1.711198 1.329588 2.054504 2.021883 0.134002 -2.005214 0.851238 -0.309268 0.087853 -17.184657 -7.992899 -2.765431 0.000000 0.000000 0.000000 -19.738129 -1.168969 -2.682838 26.224992 7.713012 -1.119746 -18.763881 -12.479030 2.847024 17.474417 -14.547432 -8.571053 0.000000 0.000000 0.000000 0.000000 0.000000 0.000000 34.796733 44.131147 7.675196 5.763124 63.732391 -17.398948 64.385087 7.522864 55.357854 -23.671172 -12.466895 16.783515 0.000000 0.000000 0.000000 0.000000 0.000000 0.000000 3.202767 15.633059 -4.218094 3.719643 -9.392016 3.303065 -0.994681 -5.554736 -16.352124 0.000000 0.000000 0.000000 -3.398158 -5.454233 -3.479592 2.580146 1.393402 0.390024 4.185754 42.921938 -2.120320 0.000000 0.000000 0.000000
2.440541 65.266132 375.349345 -0.060154 1.395050 6.027059 2.486797 0.078787 -5.931636 1.015655 -0.170524 0.190092 -15.598244 -6.677483 -2.191432 0.000000 0.000000 0.000000 -19.874531 -4.928590 -2.905777 20.096895 9.093016 -0.882440 -21.451966 -11.003388 3.638515 22.241695 -16.172323 -10.420652 0.000000 0.000000 0.000000 0.000000 0.000000 0.000000 24.233588 49.627599 13.518028 -79.695887 62.509145 29.613903 69.185443 39.885377 61.997204 -18.951468 -14.601495 20.195508 0.000000 0.000000 0.000000 0.000000 0.000000 0.000000 2.281149 16.342830 -8.428812 3.437717 -9.856898 3.205881 -1.531077 -6.491528 -10.289805 0.000000 0.000000 0.000000 -5.158095 -5.600368 -7.649827 1.636859 1.593263 0.465323 -5.249729 42.763646 6.704768 0.000000 0.000000 0.000000
3.273767 65.253728 375.247585 1.849316 1.825142 9.764649 2.691731 0.032561 -9.634566 1.043356 0.005796 0.277352 -13.498933 -3.509488 -1.045749 0.000000 0.000000 0.000000 -18.724347 -8.080875 -2.806020 13.354454 7.706023 0.040699 -21.847074 -9.037435 4.001183 22.835697 -19.423508 -10.725046 0.000000 0.000000 0.000000 0.000000 0.000000 0.000000 9.721925 52.551492 22.047417 -105.641528 43.751793 13.814608 30.187107 57.513254 77.152182 -4.344366 -16.312629 34.016507 0.000000 0.000000 0.000000 0.000000 0.000000 0.000000 0.403357 16.462149 -12.234678 3.344357 -9.909624 2.938966 -1.437148 -7.575669 -4.658590 0.000000 0.000000 0.000000 -7.653394 -6.077179 -11.725453 0.941035 1.990253 0.595302 -13.515530 38.205122 14.545511 0.000000 0.000000 0.000000
4.147759 65.217209 375.037614 3.877435 2.448859 13.731040 2.645392 -0.029733 -13.596882 0.967664 0.180140 0.345287 -10.938461 0.033452 0.018494 0.000000 0.000000 0.000000 -17.108690 -11.010506 -2.466898 8.333855 5.001504 0.710632 -20.568514 -7.502204 3.426547 20.445780 -20.752524 -9.688286 0.000000 0.000000 0.000000 0.000000 0.000000 0.000000 1.329193 51.335094 25.746311 -117.027363 34.859003 -2.485391 -2.140974 26.700406 36.728184 17.797740 6.744891 79.911878 0.000000 0.000000 0.000000 0.000000 0.000000 0.000000 -1.156985 16.606200 -16.369957 2.613160 -9.882580 2.520854 -0.929007 -8.806364 0.773988 0.000000 0.000000 0.000000 -10.434898 -6.439302 -16.078748 0.225021 2.430001 0.760127 -25.088591 36.936589 25.270434 0.000000 0.000000 0.000000
4.898020 65.133447 374.734252 5.564343 3.251564 17.589426 2.388851 0.063214 -17.503482 0.769220 0.373616 0.372771 -8.132926 4.728002 1.232281 0.000000 0.000000 0.000000 -14.771303 -13.021134 -1.925530 5.358284 0.932422 1.043705 -21.491030 -6.081838 3.314940 20.139854 -17.611939 -8.989833 0.000000 0.000000 0.000000 0.000000 0.000000 0.000000 -13.295223 51.265156 34.643475 -114.170260 33.179906 -17.272749 1.692398 11.951657 1.945755 -9.425905 14.744857 95.720624 0.000000 0.000000 0.000000 0.000000 0.000000 0.000000 -2.200676 16.424914 -20.418004 1.490252 -9.634703 2.009611 -0.004474 -9.942232 4.899561 0.000000 0.000000 0.000000 -12.702095 -6.854058 -20.340394 -0.804669 2.755028 0.953758 -25.813437 34.967770 26.600687 0.000000 0.000000 0.000000
5.569743 65.104532 374.310938 6.947244 4.181564 20.769447 1.858221 0.176353 -20.774910 0.502590 0.535583 0.367567 -5.628830 10.985854 2.618183 0.000000 0.000000 0.000000 -12.352191 -14.138509 -1.342694 4.443614 -3.442486 1.115242 -23.606664 -4.455341 3.884416 20.047394 -15.898586 -8.658157 0.000000 0.000000 0.000000 0.000000 0.000000 0.000000 -35.490673 49.800453 49.140459 -104.220023 35.205948 -29.594352 12.545263 1.162655 -21.399214 -34.041329 3.271630 95.234887 0.000000 0.000000 0.000000 0.000000 0.000000 0.000000 -3.189268 15.898641 -23.737192 0.467285 -9.223569 1.551654 0.987551 -10.737667 7.466739 0.000000 0.000000 0.000000 -14.692556 -7.262045 -23.906821 -1.741084 2.828960 1.098327 -26.714728 34.931795 28.151179 0.000000 0.000000 0.000000
6.095189 65.150306 373.909550 7.922642 5.212200 23.756353 1.320538 0.471527 -23.896839 0.320437 0.657086 0.353464 -1.095157 15.362989 3.300521 0.000000 0.000000 0.000000 -9.930890 -15.015761 -0.769907 4.386211 -7.039188 1.089199 -26.772980 -2.912878 5.287251 18.976151 -16.522787 -7.789138 0.000000 0.000000 0.000000 0.000000 0.000000 0.000000 -61.413827 42.769169 64.036461 -83.840525 35.303265 -40.104410 15.464311 -8.771848 -41.916016 -40.436700 -3.545203 102.897477 0.000000 0.000000 0.000000 0.000000 0.000000 0.000000 -3.857188 15.251808 -26.868814 -0.361945 -8.872340 1.201518 1.674705 -11.277763 9.709355 0.000000 0.000000 0.000000 -16.289443 -7.570222 -27.221470 -2.548397 2.776410 1.192914 -26.690240 32.318868 28.588763 0.000000 0.000000 0.000000
6.462268 65.325313 373.522067 8.382594 6.292206 26.570529 0.844858 0.744436 -26.851408 0.116273 0.701263 0.323031 4.051715 18.232797 3.559554 0.000000 0.000000 0.000000 -7.888852 -14.922951 -0.384596 5.507953 -11.183596 1.300682 -30.242838 -1.113081 7.199653 18.886810 -16.413561 -7.511420 0.000000 0.000000 0.000000 0.000000 0.000000 0.000000 -82.427119 31.320448 71.645985 -59.302698 29.120608 -41.962309 4.925848 -10.171112 -57.802393 -32.337893 -2.550963 110.771145 0.000000 0.000000 0.000000 0.000000 0.000000 0.000000 -4.174264 14.309786 -29.784035 -0.747252 -8.542151 1.029321 1.992600 -11.173635 10.068616 0.000000 0.000000 0.000000 -17.680921 -8.001603 -30.413067 -3.149266 2.822429 1.302721 -24.445286 31.787419 27.174272 0.000000 0.000000 0.000000
6.757248 65.510081 373.248875 8.706616 7.308459 28.015960 0.902795 0.898100 -28.404583 0.126192 0.711453 0.335301 5.979180 19.560807 3.760346 0.000000 0.000000 0.000000 -7.610026 -15.634634 -0.344964 7.666057 -12.825193 1.213467 -33.689961 -0.244311 9.037806 19.101596 -16.274140 -7.461818 0.000000 0.000000 0.000000 0.000000 0.000000 0.000000 -98.115208 19.501345 70.498084 -39.408641 17.607549 -37.805760 -2.276683 -8.990505 -67.239983 -25.482422 3.935010 134.143657 0.000000 0.000000 0.000000 0.000000 0.000000 0.000000 -4.783245 13.274542 -31.267681 -0.752769 -8.199212 0.990878 1.957363 -10.757186 9.579401 0.000000 0.000000 0.000000 -18.843103 -8.439897 -32.176944 -3.427807 2.707702 1.314375 -14.948373 28.636374 19.274601 0.000000 0.000000 0.000000
6.982849 65.755866 373.026103 8.979796 8.269214 28.389965 0.934261 0.948463 -28.872530 0.057027 0.668820 0.339782 7.389192 19.322771 3.821604 0.000000 0.000000 0.000000 -7.672966 -17.284070 -0.316789 9.390780 -12.958766 0.958256 -37.539445 1.730739 11.866160 19.774463 -17.945988 -7.960656 0.000000 0.000000 0.000000 0.000000 0.000000 0.000000 -109.324572 10.714590 64.522706 -24.763195 7.355783 -28.014374 -7.049743 3.035321 -46.880125 -5.958944 16.339672 127.272695 0.000000 0.000000 0.000000 0.000000 0.000000 0.000000 -5.388874 12.024178 -31.668964 -0.997701 -7.874539 0.931752 1.921323 -10.124909 8.622216 0.000000 0.000000 0.000000 -19.844003 -8.967545 -32.854802 -3.590433 2.565523 1.276765 -7.400748 25.929516 13.161524 0.000000 0.000000 0.000000
